<?xml version="1.0" standalone="no"?>
<!DOCTYPE svg PUBLIC "-//W3C//DTD SVG 20010904//EN"
 "http://www.w3.org/TR/2001/REC-SVG-20010904/DTD/svg10.dtd">
<svg version="1.0" xmlns="http://www.w3.org/2000/svg"
 width="16.000000pt" height="16.000000pt" viewBox="0 0 16.000000 16.000000"
 preserveAspectRatio="xMidYMid meet">
<metadata>
Created by potrace 1.11, written by Peter Selinger 2001-2013
</metadata>
<g transform="translate(0.000000,16.000000) scale(0.006154,-0.006154)"
fill="#000000" stroke="none">
<path d="M385 2417 c-28 -28 -34 -45 -49 -127 -21 -117 -40 -183 -78 -279 -51
-127 -26 -211 62 -211 52 0 95 32 163 122 82 109 94 113 359 113 114 0 210 -4
215 -8 12 -12 14 -1494 3 -1538 -21 -79 -72 -109 -243 -144 -25 -6 -75 -43
-88 -66 -5 -11 -8 -33 -5 -50 13 -82 80 -100 321 -84 65 4 385 4 450 0 221
-15 286 3 301 81 12 65 -33 105 -148 133 -96 23 -143 46 -171 85 l-22 31 -3
773 c-2 731 -1 773 15 779 10 4 126 7 258 8 236 0 241 0 290 -25 33 -17 51
-33 56 -50 42 -151 69 -190 129 -190 76 0 109 55 116 195 3 50 14 135 26 190
11 55 23 123 25 151 8 90 -37 148 -105 137 -34 -5 -55 -18 -119 -74 -32 -28
-71 -57 -88 -65 -24 -10 -167 -13 -715 -13 -758 0 -734 -2 -765 63 -45 94
-130 123 -190 63z"/>
</g>
</svg>
